<svg xmlns="http://www.w3.org/2000/svg" xmlns:xlink="http://www.w3.org/1999/xlink" width="396" zoomAndPan="magnify" viewBox="0 0 297 74.999997" height="100" preserveAspectRatio="xMidYMid meet" version="1.0"><defs><clipPath id="b291d59d2b"><path d="M 10.820312 9.761719 L 53.140625 9.761719 L 53.140625 62.457031 L 10.820312 62.457031 Z M 10.820312 9.761719 " clip-rule="nonzero"/></clipPath><clipPath id="33f0382ddc"><path d="M 30.597656 29.226562 L 44.398438 29.226562 L 44.398438 43.027344 L 30.597656 43.027344 Z M 30.597656 29.226562 " clip-rule="nonzero"/></clipPath><clipPath id="ba6b45fa4b"><path d="M 37.496094 29.226562 C 33.6875 29.226562 30.597656 32.316406 30.597656 36.128906 C 30.597656 39.9375 33.6875 43.027344 37.496094 43.027344 C 41.308594 43.027344 44.398438 39.9375 44.398438 36.128906 C 44.398438 32.316406 41.308594 29.226562 37.496094 29.226562 Z M 37.496094 29.226562 " clip-rule="nonzero"/></clipPath><clipPath id="f0256be6a4"><path d="M 37.496094 29.226562 C 33.6875 29.226562 30.597656 32.316406 30.597656 36.128906 C 30.597656 39.9375 33.6875 43.027344 37.496094 43.027344 C 41.308594 43.027344 44.398438 39.9375 44.398438 36.128906 C 44.398438 32.316406 41.308594 29.226562 37.496094 29.226562 Z M 37.496094 29.226562 " clip-rule="nonzero"/></clipPath></defs><g clip-path="url(#b291d59d2b)"><path fill="#96a28c" d="M 52.238281 14.546875 C 52.765625 14.894531 53.027344 15.316406 53.027344 15.820312 C 53.027344 16.027344 52.980469 16.234375 52.890625 16.441406 L 49 22.152344 C 48.816406 22.359375 48.65625 22.527344 48.519531 22.652344 C 48.382812 22.777344 48.234375 22.839844 48.074219 22.839844 C 47.84375 22.839844 47.535156 22.703125 47.144531 22.425781 C 45.792969 21.417969 44.285156 20.636719 42.621094 20.089844 C 40.957031 19.539062 39.230469 19.226562 37.445312 19.15625 C 34.964844 19.15625 32.683594 19.605469 30.597656 20.5 C 28.511719 21.394531 26.703125 22.628906 25.179688 24.199219 C 23.652344 25.769531 22.46875 27.582031 21.617188 29.632812 C 20.769531 31.6875 20.34375 33.871094 20.34375 36.1875 C 20.34375 38.574219 20.769531 40.785156 21.617188 42.828125 C 22.46875 44.867188 23.648438 46.652344 25.160156 48.175781 C 26.675781 49.703125 28.4375 50.886719 30.441406 51.738281 C 32.449219 52.585938 34.597656 53.011719 36.894531 53.011719 C 38.636719 53.011719 40.308594 52.753906 41.914062 52.238281 C 43.519531 51.722656 45.035156 50.980469 46.457031 50.015625 C 46.777344 49.8125 47.082031 49.628906 47.367188 49.46875 C 47.65625 49.308594 47.878906 49.226562 48.039062 49.226562 C 48.269531 49.226562 48.589844 49.46875 49 49.949219 C 49.414062 50.429688 49.863281 51.03125 50.34375 51.753906 C 50.824219 52.476562 51.296875 53.199219 51.753906 53.921875 C 52.214844 54.644531 52.605469 55.246094 52.925781 55.726562 C 53.039062 56.070312 53.097656 56.3125 53.097656 56.449219 C 53.097656 56.726562 53.011719 56.949219 52.835938 57.121094 C 52.667969 57.292969 52.453125 57.46875 52.203125 57.652344 C 50.046875 59.144531 47.71875 60.304688 45.21875 61.128906 C 42.71875 61.953125 40.011719 62.367188 37.097656 62.367188 C 34.1875 62.367188 31.417969 61.925781 28.792969 61.042969 C 26.164062 60.160156 23.757812 58.921875 21.566406 57.328125 C 19.378906 55.734375 17.484375 53.839844 15.890625 51.648438 C 14.296875 49.460938 13.058594 47.058594 12.175781 44.445312 C 11.292969 41.828125 10.851562 39.066406 10.851562 36.152344 C 10.851562 33.242188 11.292969 30.472656 12.175781 27.84375 C 13.058594 25.21875 14.300781 22.808594 15.90625 20.621094 C 17.511719 18.429688 19.410156 16.527344 21.601562 14.910156 C 23.792969 13.292969 26.199219 12.042969 28.824219 11.160156 C 31.453125 10.277344 34.222656 9.835938 37.132812 9.835938 C 42.683594 9.835938 47.71875 11.40625 52.238281 14.546875 Z M 37.613281 29.515625 C 38.855469 29.515625 39.972656 29.8125 40.96875 30.410156 C 41.96875 31.003906 42.765625 31.808594 43.359375 32.816406 C 43.957031 33.824219 44.253906 34.949219 44.253906 36.1875 C 44.253906 37.425781 43.957031 38.539062 43.359375 39.523438 C 42.765625 40.511719 41.96875 41.292969 40.96875 41.863281 C 39.972656 42.4375 38.855469 42.722656 37.613281 42.722656 C 36.398438 42.722656 35.285156 42.425781 34.277344 41.828125 C 33.269531 41.234375 32.464844 40.441406 31.871094 39.457031 C 31.273438 38.46875 30.976562 37.378906 30.976562 36.1875 C 30.976562 34.949219 31.273438 33.824219 31.871094 32.816406 C 32.464844 31.808594 33.269531 31.003906 34.277344 30.410156 C 35.285156 29.8125 36.398438 29.515625 37.613281 29.515625 Z M 37.613281 29.515625 " fill-opacity="1" fill-rule="nonzero"/></g><path fill="#96a28c" d="M 62.453125 60.304688 L 62.453125 11.867188 C 62.453125 11.476562 62.566406 11.160156 62.796875 10.917969 C 63.027344 10.679688 63.347656 10.558594 63.757812 10.558594 L 70.640625 10.558594 C 70.984375 10.558594 71.316406 10.671875 71.636719 10.902344 C 71.960938 11.132812 72.121094 11.453125 72.121094 11.867188 L 72.121094 60.304688 C 72.121094 61.175781 71.625 61.609375 70.640625 61.609375 L 63.757812 61.609375 C 62.886719 61.609375 62.453125 61.175781 62.453125 60.304688 Z M 62.453125 60.304688 " fill-opacity="1" fill-rule="nonzero"/><path fill="#96a28c" d="M 81.855469 60.304688 L 81.855469 11.828125 C 81.855469 11.460938 81.972656 11.152344 82.199219 10.902344 C 82.429688 10.648438 82.761719 10.523438 83.199219 10.523438 L 90.078125 10.523438 C 90.445312 10.523438 90.757812 10.632812 91.023438 10.851562 C 91.289062 11.070312 91.421875 11.394531 91.421875 11.828125 L 91.421875 52.5625 L 113.367188 52.5625 C 113.710938 52.5625 114.015625 52.683594 114.28125 52.925781 C 114.542969 53.164062 114.675781 53.515625 114.675781 53.972656 L 114.675781 60.269531 C 114.675781 60.636719 114.5625 60.953125 114.332031 61.214844 C 114.101562 61.480469 113.78125 61.609375 113.367188 61.609375 L 83.160156 61.609375 C 82.289062 61.609375 81.855469 61.175781 81.855469 60.304688 Z M 81.855469 60.304688 " fill-opacity="1" fill-rule="nonzero"/><g clip-path="url(#33f0382ddc)"><g clip-path="url(#ba6b45fa4b)"><g clip-path="url(#f0256be6a4)"><path fill="#fb4056" d="M 30.597656 29.226562 L 44.398438 29.226562 L 44.398438 43.027344 L 30.597656 43.027344 Z M 30.597656 29.226562 " fill-opacity="1" fill-rule="nonzero"/></g></g></g><path fill="#88a89d" d="M 128.527344 49.898438 C 128.363281 51.179688 128.238281 52.164062 128.15625 52.847656 C 128.074219 53.527344 128.03125 54.023438 128.03125 54.335938 C 128.03125 54.871094 128.097656 55.21875 128.234375 55.375 C 128.367188 55.527344 128.664062 55.605469 129.117188 55.605469 C 129.386719 55.605469 129.722656 55.574219 130.125 55.515625 C 130.527344 55.449219 130.800781 55.417969 130.945312 55.417969 C 131.339844 55.417969 131.671875 55.566406 131.941406 55.855469 C 132.207031 56.144531 132.34375 56.484375 132.34375 56.878906 C 132.34375 57.3125 132.167969 57.761719 131.816406 58.226562 C 131.464844 58.691406 130.949219 59.152344 130.265625 59.605469 C 128.921875 60.515625 127.46875 61.253906 125.90625 61.824219 C 124.34375 62.390625 123.109375 62.675781 122.199219 62.675781 C 121.289062 62.675781 120.609375 62.464844 120.152344 62.039062 C 119.699219 61.617188 119.472656 61.003906 119.472656 60.195312 C 119.472656 59.761719 119.605469 58.789062 119.875 57.28125 C 120.144531 55.773438 120.339844 54.582031 120.464844 53.714844 L 121.488281 47.667969 C 121.902344 45.101562 122.1875 43.117188 122.339844 41.710938 C 122.496094 40.304688 122.574219 39.117188 122.574219 38.144531 C 122.574219 36.945312 122.453125 36.148438 122.21875 35.757812 C 121.980469 35.363281 121.53125 35.0625 120.867188 34.855469 C 120.617188 34.773438 120.277344 34.691406 119.84375 34.609375 C 118.707031 34.359375 118.136719 33.886719 118.136719 33.179688 C 118.136719 32.707031 118.332031 32.265625 118.726562 31.863281 C 119.117188 31.460938 119.699219 31.101562 120.464844 30.792969 C 121.871094 30.214844 123.296875 29.761719 124.742188 29.429688 C 126.191406 29.097656 127.433594 28.933594 128.464844 28.933594 C 129.480469 28.933594 130.203125 29.121094 130.636719 29.492188 C 131.070312 29.863281 131.289062 30.484375 131.289062 31.351562 C 131.289062 31.601562 131.039062 33.105469 130.542969 35.863281 C 130.046875 38.625 129.632812 41.316406 129.304688 43.945312 Z M 122.695312 19.660156 C 122.695312 18.273438 123.296875 17.101562 124.496094 16.140625 C 125.695312 15.175781 127.195312 14.695312 128.992188 14.695312 C 130.171875 14.695312 131.164062 15.046875 131.972656 15.75 C 132.777344 16.453125 133.179688 17.3125 133.179688 18.324219 C 133.179688 19.609375 132.597656 20.746094 131.429688 21.738281 C 130.261719 22.730469 128.878906 23.226562 127.289062 23.226562 C 125.859375 23.226562 124.738281 22.90625 123.921875 22.265625 C 123.105469 21.621094 122.695312 20.753906 122.695312 19.660156 Z M 122.695312 19.660156 " fill-opacity="1" fill-rule="nonzero"/><path fill="#88a89d" d="M 148.347656 57.34375 C 149.875 57.34375 151.488281 56.675781 153.183594 55.34375 C 154.878906 54.007812 156.214844 52.320312 157.1875 50.273438 C 158.136719 48.246094 158.902344 46.074219 159.480469 43.757812 C 160.058594 41.441406 160.347656 39.46875 160.347656 37.832031 C 160.347656 36.34375 159.996094 35.167969 159.292969 34.300781 C 158.589844 33.429688 157.628906 32.996094 156.410156 32.996094 C 154.878906 32.996094 153.371094 33.519531 151.882812 34.5625 C 150.394531 35.605469 148.988281 37.140625 147.664062 39.167969 C 146.382812 41.050781 145.367188 43.132812 144.625 45.417969 C 143.878906 47.703125 143.507812 49.859375 143.507812 51.882812 C 143.507812 53.703125 143.910156 55.066406 144.71875 55.980469 C 145.523438 56.886719 146.734375 57.34375 148.347656 57.34375 Z M 165.3125 49.898438 L 165.21875 50.582031 C 164.949219 52.898438 164.816406 54.167969 164.816406 54.394531 C 164.816406 54.890625 164.878906 55.207031 165.003906 55.34375 C 165.125 55.476562 165.375 55.542969 165.746094 55.542969 C 165.890625 55.542969 166.117188 55.535156 166.429688 55.515625 C 166.738281 55.492188 166.976562 55.480469 167.140625 55.480469 C 167.535156 55.480469 167.855469 55.617188 168.101562 55.886719 C 168.351562 56.152344 168.476562 56.484375 168.476562 56.878906 C 168.476562 57.457031 168.242188 58.003906 167.777344 58.523438 C 167.3125 59.039062 166.511719 59.617188 165.375 60.257812 C 164.007812 61.042969 162.839844 61.632812 161.867188 62.023438 C 160.898438 62.417969 160.101562 62.613281 159.480469 62.613281 C 158.652344 62.613281 158.0625 62.292969 157.710938 61.65625 C 157.359375 61.015625 157.1875 59.925781 157.1875 58.394531 C 157.1875 57.921875 157.191406 57.542969 157.199219 57.265625 C 157.210938 56.988281 157.21875 56.742188 157.21875 56.535156 C 154.820312 58.6875 152.652344 60.25 150.71875 61.222656 C 148.785156 62.191406 146.878906 62.675781 144.996094 62.675781 C 142.203125 62.675781 139.949219 61.734375 138.234375 59.855469 C 136.519531 57.972656 135.660156 55.503906 135.660156 52.441406 C 135.660156 49.382812 136.265625 46.390625 137.476562 43.464844 C 138.6875 40.539062 140.425781 37.855469 142.703125 35.414062 C 144.582031 33.429688 146.628906 31.929688 148.84375 30.917969 C 151.054688 29.90625 153.371094 29.398438 155.789062 29.398438 C 157.113281 29.398438 158.472656 29.640625 159.867188 30.128906 C 161.265625 30.613281 161.992188 30.855469 162.054688 30.855469 C 162.695312 30.855469 163.511719 30.546875 164.503906 29.925781 C 165.5 29.304688 166.171875 28.996094 166.519531 28.996094 C 166.894531 28.996094 167.230469 29.191406 167.527344 29.585938 C 167.828125 29.976562 167.980469 30.441406 167.980469 30.980469 C 167.980469 31.621094 167.730469 33.402344 167.234375 36.328125 C 166.738281 39.253906 166.355469 41.792969 166.085938 43.945312 Z M 165.3125 49.898438 " fill-opacity="1" fill-rule="nonzero"/></svg>